#!OML:ASF H:\Terrain\Walking\May29\JustinRory\Justin.ASF
:FULLY-SPECIFIED
:DEGREES
299
root 18.2641 17.1942 -18.3442 -4.7529 5.9626 -1.01513
lowerback 3.54472 -4.46885 -0.120499
upperback -0.434549 -5.98218 -0.73641
thorax -2.49234 -2.9865 -0.34835
lowerneck -10.5076 -6.12587 -17.3505
upperneck 18.3828 -8.37908 15.1129
head 8.83762 -3.86035 7.18153
rclavicle -5.10877e-014 -1.11319e-014
rhumerus 40.4894 5.25338 -81.4012
rradius 32.8315
rwrist 4.46449
rhand -12.838 9.82559
rfingers 7.12502
rthumb 13.2493 -19.7333
lclavicle -5.10877e-014 -1.11319e-014
lhumerus 53.9827 -26.915 52.2311
lradius 33.967
lwrist -11.89
lhand 0.43651 28.8702
lfingers 7.12502
lthumb 26.0084 57.1102
rfemur -19.0416 1.74767 11.6791
rtibia 24.1072
rfoot 2.31997 -13.7324
rtoes 9.20286
lfemur 1.849 0.8344 -19.3613
ltibia 27.0064
lfoot -21.672 1.71032
ltoes -6.16874
300
root 18.2761 17.1991 -18.3607 -4.69949 5.63815 -1.25891
lowerback 3.24806 -4.12901 0.277255
upperback -0.09047 -5.50352 -0.464731
thorax -1.97893 -2.75189 -0.358058
lowerneck -11.9568 -6.52311 -20.1488
upperneck 19.0345 -8.72829 17.5391
head 9.6643 -3.96298 8.5754
rclavicle -4.74971e-014 2.98177e-015
rhumerus 40.8991 4.413 -80.7447
rradius 33.45
rwrist 4.0573
rhand -12.7665 9.98923
rfingers 7.12502
rthumb 13.3182 -19.5652
lclavicle -4.74971e-014 2.98177e-015
lhumerus 54.3169 -26.8745 52.0713
lradius 35.014
lwrist -11.6244
lhand 0.673757 28.8844
lfingers 7.12502
lthumb 26.2356 57.0908
rfemur -19.041 1.64818 11.9738
rtibia 23.5754
rfoot 3.17957 -13.3128
rtoes 7.80204
lfemur 1.64461 0.758858 -19.2003
ltibia 27.2033
lfoot -21.7235 1.94076
ltoes -5.34834
301
root 18.2843 17.2002 -18.3703 -4.73045 5.30673 -1.37411
lowerback 3.18353 -4.26019 0.386487
upperback -0.25823 -5.67887 -0.637733
thorax -2.1454 -2.84186 -0.581615
lowerneck -6.95394 -6.64106 -10.7641
upperneck 13.7075 -8.8418 7.69992
head 6.11572 -4.3485 3.4978
rclavicle 7.06431e-014 4.77083e-015
rhumerus 40.5634 3.12157 -83.9064
rradius 33.3843
rwrist 6.21183
rhand -12.4526 10.7881
rfingers 7.12502
rthumb 13.6208 -18.7463
lclavicle 7.06431e-014 4.77083e-015
lhumerus 52.9199 -26.9081 51.1526
lradius 36.2893
lwrist -11.0303
lhand 0.882225 28.9777
lfingers 7.12502
lthumb 26.4351 57.1542
rfemur -18.8778 1.72547 12.1214
rtibia 23.0478
rfoot 3.83507 -13.0212
rtoes 6.87007
lfemur 1.58748 0.709488 -19.154
ltibia 27.4412
lfoot -21.8567 2.15162
ltoes -5.56109
302
root 18.2941 17.2024 -18.3831 -4.73198 4.96359 -1.74752
lowerback 3.07811 -3.80679 0.975812
upperback 0.0158416 -5.0464 -0.333684
thorax -1.81822 -2.52943 -0.649654
lowerneck -3.77525 -8.05063 -7.28394
upperneck 7.77178 -10.454 1.833
head 3.74825 -5.33259 1.36809
rclavicle -7.0817e-016 -2.5842e-015
rhumerus 39.4768 7.18658 -75.0367
rradius 36.9777
rwrist -3.37431
rhand -14.1658 8.87472
rfingers 7.12502
rthumb 11.9692 -20.7631
lclavicle -7.0817e-016 -2.5842e-015
lhumerus 52.8922 -27.0162 51.9335
lradius 37.5288
lwrist -11.0092
lhand 1.46237 29.1549
lfingers 7.12502
lthumb 26.9903 57.2468
rfemur -18.773 1.99485 12.4853
rtibia 22.6486
rfoot 4.05345 -12.9027
rtoes 7.19436
lfemur 1.49307 0.775477 -18.7986
ltibia 27.6142
lfoot -21.9264 2.40597
ltoes -6.41302
303
root 18.3051 17.2004 -18.4002 -4.72244 4.75323 -2.06333
lowerback 3.11392 -3.96044 1.40446
upperback -0.117966 -5.23634 -0.397673
thorax -2.02409 -2.63003 -0.932007
lowerneck -1.97413 -8.10769 -7.15463
upperneck 6.07378 -10.6603 1.81201
head 2.81922 -5.42193 1.44002
rclavicle 6.69283e-014 1.2921e-014
rhumerus 38.2865 6.30304 -77.3193
rradius 37.9172
rwrist -2.18716
rhand -13.3286 10.1236
rfingers 7.12502
rthumb 12.7765 -19.4655
lclavicle 6.69283e-014 1.2921e-014
lhumerus 51.1443 -26.6952 51.7839
lradius 39.0491
lwrist -11.0035
lhand 2.13661 29.3353
lfingers 7.12502
lthumb 27.6352 57.3257
rfemur -18.6681 1.9971 12.7817
rtibia 22.2592
rfoot 4.29882 -12.6143
rtoes 6.75203
lfemur 1.36901 0.699505 -18.536
ltibia 27.7509
lfoot -22.0151 2.70782
ltoes -5.53934
304
root 18.3151 17.1962 -18.4113 -4.80034 4.70468 -1.91486
lowerback 3.18912 -4.12298 1.27122
upperback -0.186718 -5.45991 -0.53837
thorax -2.14461 -2.74183 -0.980703
lowerneck -6.87303 -6.82645 -10.6874
upperneck 13.302 -9.05515 7.47403
head 5.98161 -4.46355 3.39698
rclavicle -4.45153e-014 -2.38542e-015
rhumerus 37.2161 7.17781 -76.695
rradius 39.6906
rwrist -4.25836
rhand -13.1445 10.4806
rfingers 7.12502
rthumb 12.9539 -19.0973
lclavicle -4.45153e-014 -2.38542e-015
lhumerus 49.4222 -26.3442 51.8827
lradius 40.3464
lwrist -11.1477
lhand 2.78102 29.2589
lfingers 7.12502
lthumb 28.2513 57.149
rfemur -18.3843 1.74784 12.5657
rtibia 21.8448
rfoot 4.64621 -12.2029
rtoes 5.88273
lfemur 1.3937 0.697405 -18.753
ltibia 27.8607
lfoot -22.1292 2.80737
ltoes -4.6281
305
root 18.3246 17.2088 -18.419 -4.85811 4.68122 -1.78789
lowerback 3.21677 -4.10005 1.1893
upperback -0.118518 -5.43258 -0.560086
thorax -2.08364 -2.72681 -0.960418
lowerneck -6.96107 -6.94048 -10.3758
upperneck 13.2581 -9.16841 7.01489
head 5.95793 -4.53095 3.18809
rclavicle 7.688e-014 -2.18663e-015
rhumerus 36.3113 7.87484 -75.0935
rradius 41.6574
rwrist -7.06471
rhand -13.1994 10.5709
rfingers 7.12502
rthumb 12.901 -19.0103
lclavicle 7.688e-014 -2.18663e-015
lhumerus 48.3829 -26.1268 51.909
lradius 41.76
lwrist -10.7323
lhand 3.26621 28.9336
lfingers 7.12502
lthumb 28.7149 56.746
rfemur -18.1729 1.54175 12.3624
rtibia 21.5693
rfoot 4.89743 -11.8526
rtoes 6.11413
lfemur 1.42236 0.822461 -18.8938
ltibia 27.8567
lfoot -22.1136 2.6795
ltoes -5.38552
